<svg xmlns="http://www.w3.org/2000/svg" xmlns:xlink="http://www.w3.org/1999/xlink" viewBox="0 0 48 48" version="1.1" width="48" height="48">
<g id="surface1">
<path style="fill:none;stroke-width:4;stroke-linecap:butt;stroke-linejoin:miter;stroke:#64B5F6;stroke-opacity:1;stroke-miterlimit:4;" d="M 40 24 C 40 32.835938 32.835938 40 24 40 C 15.164063 40 8 32.835938 8 24 C 8 15.164063 15.164063 8 24 8 C 32.835938 8 40 15.164063 40 24 Z "/>
<path style="fill:none;stroke-width:4;stroke-linecap:square;stroke-linejoin:miter;stroke:#2196F3;stroke-opacity:1;stroke-miterlimit:4;" d="M 24 5 L 24 11 "/>
<path style="fill:none;stroke-width:4;stroke-linecap:square;stroke-linejoin:miter;stroke:#2196F3;stroke-opacity:1;stroke-miterlimit:4;" d="M 24 37 L 24 43 "/>
<path style="fill:none;stroke-width:4;stroke-linecap:square;stroke-linejoin:miter;stroke:#2196F3;stroke-opacity:1;stroke-miterlimit:4;" d="M 11 24 L 5 24 "/>
<path style="fill:none;stroke-width:4;stroke-linecap:square;stroke-linejoin:miter;stroke:#2196F3;stroke-opacity:1;stroke-miterlimit:4;" d="M 43 24 L 37 24 "/>
<path style=" fill:#CDDC39;" d="M 30 24 C 30 27.3125 27.3125 30 24 30 C 20.6875 30 18 27.3125 18 24 C 18 20.6875 20.6875 18 24 18 C 27.3125 18 30 20.6875 30 24 Z "/>
</g>
</svg>